<svg width="179" height="48" viewBox="0 0 179 48" fill="none" xmlns="http://www.w3.org/2000/svg">
<path opacity="0.4" d="M0 22.744C0 17.9093 4.38049 14.261 9.12559 15.1437L31.14 19.2393V25.5388C31.14 30.3736 26.7595 34.0219 22.0144 33.1391L0 29.0435V22.744Z" fill="white"/>
<path d="M25.2937 35.9356L0.0316823 47.7605L0 33.8203L31.14 19.233V26.0206H31.1307C31.1936 28.1077 30.6714 30.1672 29.6312 31.9342C28.591 33.7011 27.0803 35.0947 25.2937 35.9356Z" fill="white"/>
<path d="M5.84818 12.3473C4.06092 13.1872 2.54983 14.5806 1.50978 16.3478C0.469725 18.115 -0.0515962 20.1751 0.0130457 22.2623H0V29.0439L31.1381 14.4606L31.112 0.5224L5.84818 12.3473Z" fill="white"/>
<ellipse cx="169.793" cy="27.8204" rx="3.04504" ry="3.04762" fill="white"/>
<path fill-rule="evenodd" clip-rule="evenodd" d="M42.4247 27.0198C42.0321 26.7609 41.818 26.4216 41.7823 26.0019L37.7144 25.9885C37.7144 26.56 37.8303 27.1359 38.0623 27.7162C38.2942 28.2877 38.6555 28.8055 39.1462 29.2698C39.6368 29.7252 40.2613 30.0957 41.0196 30.3814C41.7868 30.6671 42.7057 30.81 43.7762 30.81C44.7575 30.81 45.6585 30.7118 46.4793 30.5153C47.3 30.3278 48.0047 30.0332 48.5935 29.6314C49.1912 29.2296 49.6551 28.7252 49.9852 28.118C50.3153 27.5019 50.4803 26.7787 50.4803 25.9484C50.4803 25.1894 50.3331 24.5644 50.0387 24.0734C49.7443 23.5734 49.3429 23.1716 48.8344 22.868C48.3348 22.5555 47.755 22.3144 47.0948 22.1448C46.4346 21.9662 45.7388 21.8144 45.0073 21.6894C44.5345 21.6269 44.1286 21.5644 43.7896 21.5019C43.4506 21.4394 43.1696 21.368 42.9465 21.2877C42.7324 21.1984 42.5718 21.0957 42.4648 20.9796C42.3667 20.8546 42.3176 20.7028 42.3176 20.5243C42.3087 20.2207 42.4559 19.9528 42.7592 19.7207C43.0625 19.4885 43.5309 19.3725 44.1642 19.3725C44.6995 19.3725 45.1143 19.4975 45.4087 19.7475C45.7031 19.9885 45.8637 20.2787 45.8905 20.618L50.0387 20.6314C50.0387 19.9528 49.9094 19.3323 49.6507 18.7698C49.4009 18.1984 49.0351 17.7073 48.5534 17.2966C48.0717 16.8859 47.4829 16.5689 46.787 16.3457C46.1001 16.1225 45.324 16.0109 44.4586 16.0109C43.397 16.0109 42.4737 16.118 41.6887 16.3323C40.9036 16.5377 40.2524 16.8368 39.735 17.2296C39.2175 17.6135 38.8295 18.0912 38.5708 18.6627C38.321 19.2252 38.1961 19.8591 38.1961 20.5644C38.1961 21.1002 38.263 21.5689 38.3968 21.9707C38.5306 22.3635 38.709 22.7028 38.9321 22.9885C39.164 23.2743 39.4272 23.5153 39.7216 23.7118C40.016 23.8993 40.3193 24.06 40.6315 24.1939C40.9527 24.3189 41.2738 24.4216 41.595 24.5019C41.9162 24.5734 42.2105 24.6359 42.4782 24.6894C43.0759 24.8234 43.6022 24.935 44.0572 25.0243C44.5122 25.1135 44.8958 25.2118 45.208 25.3189C45.5202 25.426 45.7566 25.551 45.9172 25.6939C46.0778 25.8278 46.1581 26.0064 46.1581 26.2296C46.1581 26.6046 45.9841 26.8948 45.6362 27.1002C45.2883 27.3055 44.7218 27.4082 43.9368 27.4082C43.3301 27.4082 42.8261 27.2787 42.4247 27.0198ZM51.872 23.466C51.872 22.4557 52.0582 21.5074 52.4307 20.6211C52.8031 19.726 53.3263 18.946 54.0003 18.2813C54.6831 17.6166 55.4901 17.0937 56.4213 16.7126C57.3613 16.3227 58.3989 16.1277 59.534 16.1277C60.678 16.1277 61.72 16.3227 62.66 16.7126C63.6089 17.0937 64.4203 17.6166 65.0943 18.2813C65.7771 18.946 66.3048 19.726 66.6772 20.6211C67.0586 21.5074 67.2492 22.4557 67.2492 23.466C67.2492 23.7496 67.2359 23.9712 67.2093 24.1307C67.1916 24.2903 67.1694 24.4498 67.1428 24.6093H55.9557C56.071 25.0436 56.2484 25.4336 56.4878 25.7792C56.7361 26.1248 57.0199 26.4217 57.3391 26.6699C57.6673 26.9092 58.0176 27.0953 58.39 27.2283C58.7713 27.3612 59.1615 27.4277 59.5606 27.4277C60.208 27.4277 60.7711 27.2903 61.25 27.0156C61.7288 26.7408 62.0924 26.3907 62.3407 25.9653H66.7837C66.5797 26.568 66.2693 27.1618 65.8525 27.7467C65.4357 28.3228 64.9214 28.8368 64.3095 29.2888C63.6976 29.7408 62.9881 30.1042 62.1811 30.379C61.383 30.6537 60.5006 30.7911 59.534 30.7911C58.4077 30.7911 57.3746 30.6005 56.4346 30.2194C55.4946 29.8295 54.6876 29.3021 54.0136 28.6374C53.3396 27.9727 52.812 27.1972 52.4307 26.311C52.0582 25.4158 51.872 24.4675 51.872 23.466ZM59.5606 19.3847C58.7004 19.3847 57.9732 19.6019 57.379 20.0361C56.7849 20.4704 56.3548 21.0421 56.0887 21.7511H62.8728C62.6157 21.0509 62.2077 20.4837 61.649 20.0494C61.0903 19.6063 60.3942 19.3847 59.5606 19.3847ZM78.4709 20.1425L76.7416 20.1558C75.6065 20.1558 74.7197 20.4704 74.0812 21.0997C73.4516 21.7289 73.1368 22.6772 73.1368 23.9446V28.7034C73.1368 29.6141 72.398 30.3524 71.4868 30.3524H69.0397V18.2154C69.0397 17.3047 69.7784 16.5664 70.6897 16.5664H72.3386L72.6579 17.8692C73.1013 17.497 73.6378 17.1868 74.2674 16.9386C74.906 16.6905 75.6553 16.5664 76.5155 16.5664H78.4709V20.1425ZM80.07 20.6211C79.6976 21.5074 79.5113 22.4557 79.5113 23.466C79.5113 24.4675 79.6976 25.4158 80.07 26.311C80.4514 27.1972 80.979 27.9727 81.653 28.6374C82.327 29.3021 83.1339 29.8295 84.074 30.2194C85.014 30.6005 86.0471 30.7911 87.1734 30.7911C88.14 30.7911 89.0224 30.6537 89.8205 30.379C90.6275 30.1042 91.3369 29.7408 91.9488 29.2888C92.5607 28.8368 93.0751 28.3228 93.4919 27.7467C93.9087 27.1618 94.2191 26.568 94.423 25.9653H89.9801C89.7318 26.3907 89.3682 26.7408 88.8893 27.0156C88.4105 27.2903 87.8473 27.4277 87.2 27.4277C86.8009 27.4277 86.4107 27.3612 86.0294 27.2283C85.6569 27.0953 85.3066 26.9092 84.9785 26.6699C84.6593 26.4217 84.3755 26.1248 84.1272 25.7792C83.8877 25.4336 83.7104 25.0436 83.5951 24.6093H94.7822C94.8088 24.4498 94.831 24.2903 94.8487 24.1307C94.8753 23.9712 94.8886 23.7496 94.8886 23.466C94.8886 22.4557 94.6979 21.5074 94.3166 20.6211C93.9442 19.726 93.4165 18.946 92.7337 18.2813C92.0597 17.6166 91.2483 17.0937 90.2994 16.7126C89.3594 16.3227 88.3174 16.1277 87.1734 16.1277C86.0383 16.1277 85.0007 16.3227 84.0607 16.7126C83.1295 17.0937 82.3225 17.6166 81.6397 18.2813C80.9657 18.946 80.4425 19.726 80.07 20.6211ZM85.0184 20.0361C85.6126 19.6019 86.3398 19.3847 87.2 19.3847C88.0336 19.3847 88.7297 19.6063 89.2884 20.0494C89.8471 20.4837 90.255 21.0509 90.5122 21.7511H83.7281C83.9942 21.0421 84.4243 20.4704 85.0184 20.0361ZM119.599 28.7034C119.599 29.6141 118.86 30.3524 117.949 30.3524H115.475V23.014C115.475 21.8619 115.284 21.0155 114.903 20.4749C114.522 19.9342 113.954 19.6639 113.2 19.6639C112.757 19.6639 112.353 19.7392 111.99 19.8899C111.626 20.0406 111.316 20.2577 111.059 20.5413C110.802 20.8249 110.598 21.1706 110.447 21.5783C110.305 21.9771 110.23 22.4291 110.221 22.9343V28.7034C110.221 29.6141 109.482 30.3524 108.571 30.3524H106.084V23.014C106.084 21.8619 105.893 21.0155 105.512 20.4749C105.13 19.9342 104.563 19.6639 103.809 19.6639C103.357 19.6639 102.944 19.7437 102.572 19.9032C102.208 20.0539 101.894 20.2799 101.627 20.5812C101.37 20.8825 101.171 21.2503 101.029 21.6846C100.896 22.11 100.829 22.593 100.829 23.1337V28.7034C100.829 29.6141 100.091 30.3524 99.1794 30.3524H96.719V18.2154C96.719 17.3047 97.4577 16.5664 98.369 16.5664H100.031L100.271 17.5236C100.785 17.1425 101.392 16.8145 102.093 16.5398C102.802 16.2651 103.587 16.1277 104.448 16.1277C105.361 16.1277 106.177 16.2872 106.895 16.6063C107.613 16.9165 108.225 17.3596 108.731 17.9357C109.006 17.6964 109.316 17.466 109.662 17.2444C110.008 17.0228 110.385 16.8323 110.793 16.6727C111.209 16.5043 111.657 16.3714 112.136 16.2739C112.624 16.1764 113.143 16.1277 113.693 16.1277C114.65 16.1277 115.497 16.2828 116.233 16.593C116.969 16.9032 117.586 17.3507 118.082 17.9357C118.588 18.5206 118.965 19.2341 119.213 20.076C119.47 20.9091 119.599 21.853 119.599 22.9077V28.7034ZM136.7 26.311C137.037 25.4158 137.205 24.4631 137.205 23.4527C137.205 22.4424 137.032 21.4941 136.687 20.6078C136.341 19.7127 135.844 18.9372 135.197 18.2813C134.558 17.6166 133.782 17.0937 132.869 16.7126C131.964 16.3227 130.949 16.1277 129.823 16.1277C129.353 16.1277 128.905 16.172 128.479 16.2606C128.062 16.3492 127.668 16.4689 127.295 16.6196C126.923 16.7614 126.577 16.9298 126.258 17.1247C125.947 17.3197 125.664 17.5236 125.406 17.7363L125.14 16.5664H123.478C122.567 16.5664 121.828 17.3047 121.828 18.2154V35.0585H124.288C125.2 35.0585 125.938 34.3202 125.938 33.4095V29.568C126.435 29.9314 127.007 30.2239 127.654 30.4454C128.311 30.6759 129.056 30.7911 129.889 30.7911C131.024 30.7911 132.044 30.6005 132.949 30.2194C133.853 29.8295 134.62 29.3021 135.25 28.6374C135.88 27.9727 136.363 27.1972 136.7 26.311ZM132.789 21.8973C132.984 22.367 133.082 22.8899 133.082 23.466C133.082 24.0421 132.989 24.565 132.802 25.0347C132.616 25.4956 132.359 25.89 132.031 26.2179C131.703 26.5458 131.313 26.8028 130.86 26.989C130.417 27.1662 129.938 27.2548 129.424 27.2548C128.918 27.2548 128.439 27.1662 127.987 26.989C127.544 26.8028 127.153 26.5458 126.816 26.2179C126.488 25.8811 126.227 25.4823 126.032 25.0214C125.836 24.5517 125.739 24.0332 125.739 23.466C125.739 22.8899 125.832 22.367 126.018 21.8973C126.213 21.4187 126.475 21.0155 126.803 20.6876C127.14 20.3508 127.53 20.0938 127.974 19.9165C128.417 19.7304 128.896 19.6373 129.41 19.6373C129.916 19.6373 130.39 19.7304 130.834 19.9165C131.286 20.0938 131.676 20.3508 132.004 20.6876C132.341 21.0243 132.603 21.4276 132.789 21.8973ZM148.808 20.1425L147.078 20.1558C145.943 20.1558 145.056 20.4704 144.418 21.0997C143.788 21.7289 143.474 22.6772 143.474 23.9446V28.7034C143.474 29.6141 142.735 30.3524 141.824 30.3524H139.376V18.2154C139.376 17.3047 140.115 16.5664 141.026 16.5664H142.675L142.995 17.8692C143.438 17.497 143.975 17.1868 144.604 16.9386C145.243 16.6905 145.992 16.5664 146.852 16.5664H148.808V20.1425ZM150.407 20.6211C150.034 21.5074 149.848 22.4557 149.848 23.466C149.848 24.4675 150.034 25.4158 150.407 26.311C150.788 27.1972 151.316 27.9727 151.99 28.6374C152.664 29.3021 153.471 29.8295 154.411 30.2194C155.351 30.6005 156.384 30.7911 157.51 30.7911C158.477 30.7911 159.359 30.6537 160.157 30.379C160.964 30.1042 161.674 29.7408 162.286 29.2888C162.898 28.8368 163.412 28.3228 163.829 27.7467C164.245 27.1618 164.556 26.568 164.76 25.9653H160.317C160.069 26.3907 159.705 26.7408 159.226 27.0156C158.747 27.2903 158.184 27.4277 157.537 27.4277C157.138 27.4277 156.747 27.3612 156.366 27.2283C155.994 27.0953 155.643 26.9092 155.315 26.6699C154.996 26.4217 154.712 26.1248 154.464 25.7792C154.225 25.4336 154.047 25.0436 153.932 24.6093H165.119C165.146 24.4498 165.168 24.2903 165.185 24.1307C165.212 23.9712 165.225 23.7496 165.225 23.466C165.225 22.4557 165.035 21.5074 164.653 20.6211C164.281 19.726 163.753 18.946 163.07 18.2813C162.396 17.6166 161.585 17.0937 160.636 16.7126C159.696 16.3227 158.654 16.1277 157.51 16.1277C156.375 16.1277 155.337 16.3227 154.397 16.7126C153.466 17.0937 152.659 17.6166 151.976 18.2813C151.302 18.946 150.779 19.726 150.407 20.6211ZM155.355 20.0361C155.949 19.6019 156.677 19.3847 157.537 19.3847C158.37 19.3847 159.067 19.6063 159.625 20.0494C160.184 20.4837 160.592 21.0509 160.849 21.7511H154.065C154.331 21.0421 154.761 20.4704 155.355 20.0361Z" fill="white"/>
<path d="M173.816 16.3201H172.838V16.0109H175.151V16.3201H174.17V19.0585H173.816V16.3201Z" fill="white"/>
<path d="M177.119 18.0344L176.035 16.5935V19.0585H175.684V16.0109H175.986L177.173 17.575L178.359 16.0109H178.666V19.0585H178.317V16.5957L177.224 18.0344H177.119Z" fill="white"/>
</svg>
